Coordinates
version=1
nRows=24
nColumns=24
inDegrees=yes

Units are S.I. units (second, meters, Newtons, ...)
Angles are in degrees.

endheader
time	pelvis_tilt	pelvis_list	pelvis_rotation	pelvis_tx	pelvis_ty	pelvis_tz	hip_flexion_r	hip_adduction_r	hip_rotation_r	knee_angle_r	ankle_angle_r	subtalar_angle_r	mtp_angle_r	hip_flexion_l	hip_adduction_l	hip_rotation_l	knee_angle_l	ankle_angle_l	subtalar_angle_l	mtp_angle_l	lumbar_extension	lumbar_bending	lumbar_rotation
      1.41633333	      0.87044730	     -4.63723725	     -9.59806755	      0.95019052	      0.99378988	      0.29595500	    -17.96342122	      8.02005957	     12.53919700	    -13.93494576	     18.68391386	     -0.43996873	      3.06711947	     29.38978376	     -7.27378529	     -5.24742270	     -1.98655729	     10.97770151	     -8.77077321	     -3.45460466	     -1.47869616	      2.30272096	      8.82865823
      1.42050000	      0.85212685	     -4.50129298	     -9.73894473	      0.95599511	      0.99313901	      0.29580873	    -18.16452762	      7.77615874	     12.55419405	    -14.12629138	     18.56691241	     -0.40711451	      3.07523798	     29.34225247	     -7.15454957	     -5.07723250	     -2.56490450	     11.31915413	     -9.03806206	     -3.42754063	     -1.35200307	      2.12523824	      8.89116052
      1.42466667	      0.81660138	     -4.37406109	     -9.86043248	      0.96184673	      0.99244472	      0.29560607	    -18.34172911	      7.54338899	     12.51591777	    -14.32859061	     18.44786381	     -0.30853065	      3.12620032	     29.31077922	     -7.02729417	     -4.81050203	     -3.14391288	     11.59456807	     -9.43148833	     -3.36349340	     -1.21381870	      1.97255393	      9.12038374
      1.42883333	      0.78480154	     -4.23109397	    -10.00928787	      0.96774616	      0.99178629	      0.29542385	    -18.50470922	      7.28371577	     12.48550306	    -14.56469436	     18.32009741	     -0.19531362	      3.23228735	     29.23475272	     -6.89009828	     -4.58685283	     -3.65965490	     11.80914391	     -9.85918958	     -3.26413578	     -1.07222876	      1.80946092	      9.28246722
      1.43300000	      0.75109535	     -4.08745481	    -10.13949867	      0.97370654	      0.99111862	      0.29521879	    -18.67801868	      7.03021404	     12.47792291	    -14.77663951	     18.14648451	     -0.15581504	      3.25321722	     29.17536376	     -6.74790836	     -4.45583398	     -4.21250154	     12.09431573	    -10.07272523	     -3.23685829	     -0.93393130	      1.64287801	      9.31766111
      1.43716667	      0.71676293	     -3.94324581	    -10.24224954	      0.97972562	      0.99043844	      0.29495182	    -18.83569878	      6.77609500	     12.37133446	    -15.01458409	     17.99577941	      0.00267919	      3.37872428	     29.09839645	     -6.58139131	     -4.22148348	     -4.72255683	     12.26003452	    -10.43610197	     -3.14377946	     -0.75597997	      1.46112348	      9.54258033
      1.44133333	      0.68446605	     -3.78998868	    -10.36228751	      0.98577800	      0.98977594	      0.29469425	    -18.98281884	      6.50687936	     12.28366407	    -15.27571004	     17.82213572	      0.14189254	      3.53899982	     29.00055387	     -6.41189018	     -4.05816471	     -5.19251916	     12.39879465	    -10.75742133	     -3.03176472	     -0.59389185	      1.27760317	      9.67194820
      1.44550000	      0.64966480	     -3.63816112	    -10.49533098	      0.99189270	      0.98913325	      0.29445551	    -19.12379231	      6.23727416	     12.22759460	    -15.54676807	     17.59687503	      0.21960135	      3.61119698	     28.89157397	     -6.25192772	     -3.96513552	     -5.64558517	     12.56257645	    -10.96457010	     -2.97824523	     -0.40829162	      1.10515418	      9.72937839
      1.44966667	      0.61426398	     -3.47293912	    -10.61822635	      0.99801947	      0.98847715	      0.29415178	    -19.23203822	      5.94483833	     12.06850106	    -15.87223667	     17.44972776	      0.49156079	      3.94587156	     28.77658360	     -6.06330483	     -3.82569989	     -6.05622809	     12.54130958	    -11.38316629	     -2.77144477	     -0.24769629	      0.92831928	      9.96624087
      1.45383333	      0.57330199	     -3.30666719	    -10.71767540	      1.00423312	      0.98782011	      0.29384446	    -19.36453036	      5.66974607	     11.99962173	    -16.13690638	     17.16208349	      0.53665747	      3.99602075	     28.68002759	     -5.87328612	     -3.79424152	     -6.48388821	     12.61419981	    -11.52345312	     -2.73336672	     -0.07163510	      0.75105911	      9.97685797
      1.45800000	      0.56860718	     -3.12678909	    -10.80353885	      1.01047659	      0.98723110	      0.29350060	    -19.50686177	      5.36677414	     11.81313816	    -16.43638081	     16.82773147	      0.68508230	      7.32972916	     28.50812319	     -5.64890705	     -3.69696623	     -6.80114492	     12.39395591	    -11.90173434	     -0.66553570	      0.10310441	      0.52275703	     10.11538907
      1.46216667	      0.50139472	     -2.95168735	    -10.88914386	      1.01673915	      0.98655681	      0.29314000	    -19.57653050	      5.08898449	     11.69033852	    -16.76057809	     16.51365035	      0.76311265	      7.33685221	     28.44152858	     -5.44856582	     -3.72537365	     -7.19062238	     12.33941434	    -11.98833962	     -0.65875263	      0.30731186	      0.34523231	     10.14387038
      1.46633333	      0.45376061	     -2.74969329	    -10.96680289	      1.02301679	      0.98590787	      0.29275149	    -19.61972640	      4.77106705	     11.43023840	    -17.17133053	     16.34273083	      1.09508023	      7.44487319	     28.33115077	     -5.20858307	     -3.71837409	     -7.49528574	     12.06631497	    -12.24324276	     -0.59772019	      0.54537240	      0.09148768	     10.32262531
      1.47050000	      0.40329045	     -2.55305231	    -11.01542548	      1.02940489	      0.98529469	      0.29233870	    -19.69479874	      4.47540964	     11.23890687	    -17.50471982	     15.96054233	      1.19615940	      7.49875520	     28.22825003	     -4.96777421	     -3.76739939	     -7.79772890	     11.83707605	    -12.33026782	     -0.56247430	      0.79726228	     -0.12523500	     10.34163010
      1.47466667	      0.35328673	     -2.34345805	    -11.03982541	      1.03573658	      0.98466393	      0.29181960	    -19.71698914	      4.16234994	     10.91224943	    -17.93223414	     15.66155174	      1.46075737	      8.28533008	     28.12615283	     -4.68412125	     -3.63981859	     -8.05785173	     11.34332139	    -12.79833059	     -0.06746398	      1.00250705	     -0.35273077	     10.43198307
      1.47883333	      0.31494436	     -2.11222565	    -11.09820826	      1.04211900	      0.98410032	      0.29136229	    -19.73757267	      3.81389925	     10.62917110	    -18.37939925	     15.35165560	      1.78024073	      8.66242285	     28.02440264	     -4.41577077	     -3.80729942	     -8.33903573	     10.95922022	    -12.87863796	      0.15768349	      1.22758553	     -0.60937085	     10.52342195
      1.48300000	      0.25912105	     -1.88575420	    -11.10597706	      1.04853816	      0.98352817	      0.29088995	    -19.76064668	      3.50850303	     10.39900443	    -18.78159617	     14.89310170	      1.80516915	      8.73268966	     27.96634402	     -4.14112547	     -3.94093506	     -8.64528196	     10.52834179	    -12.85802175	      0.19914840	      1.48427399	     -0.87635984	     10.50843943
      1.48716667	      0.20078769	     -1.63084323	    -11.11854415	      1.05494020	      0.98296901	      0.29033610	    -19.72114683	      3.15277301	     10.03734960	    -19.27403309	     14.43019271	      2.03365367	     12.30778280	     27.90080005	     -3.82625699	     -4.00164969	     -8.89853679	      9.88822843	    -13.13521138	      2.36755925	      1.72483350	     -1.16476232	     10.53987601
      1.49133333	      0.15734282	     -1.38421108	    -11.07175494	      1.06138859	      0.98245452	      0.28975486	    -19.72462995	      2.83549919	      9.70459117	    -19.72207845	     13.92187257	      2.11298187	     12.32214142	     27.86610488	     -3.51107415	     -4.14932580	     -9.23298235	      9.36265253	    -13.08126133	      2.36740716	      1.97175488	     -1.45909637	     10.53397939
      1.49550000	      0.10520495	     -1.08951271	    -11.04224789	      1.06779374	      0.98194546	      0.28913520	    -19.64416430	      2.44862168	      9.25494660	    -20.29964795	     13.56612324	      2.45403340	     12.46676984	     27.84001141	     -3.14696376	     -4.25479805	     -9.54354946	      8.74347665	    -13.22835215	      2.42294062	      2.20675096	     -1.80663144	     10.55134750
      1.49966667	      0.05692720	     -0.79687099	    -10.97733056	      1.07423531	      0.98148539	      0.28847192	    -19.57316565	      2.07864782	      8.80698952	    -20.85677066	     13.07810427	      2.67829871	     12.70035939	     27.83161288	     -2.77425736	     -4.35328471	     -9.89311971	      8.12738126	    -13.31808418	      2.52263714	      2.45642872	     -2.15574106	     10.52680927
      1.50383333	      0.02040261	     -0.50198182	    -10.86792452	      1.08066665	      0.98107585	      0.28772682	    -19.49730301	      1.71031061	      8.28193208	    -21.43788493	     12.53115653	      2.99396166	     13.25568513	     27.82874639	     -2.37823263	     -4.40242485	    -10.26092606	      7.47701925	    -13.38427680	      2.76668297	      2.67854111	     -2.50130228	     10.47525271
      1.50800000	     -0.01690398	     -0.18302408	    -10.75771087	      1.08709325	      0.98071190	      0.28704337	    -19.41817391	      1.33962790	      7.84985057	    -22.01139546	     11.88122965	      3.01887283	     13.44161896	     27.86281153	     -1.97741966	     -4.55636681	    -10.71124207	      6.97998401	    -13.26286654	      2.83952594	      2.90554306	     -2.92415572	     10.42897631
      1.51216667	     -0.01115530	      0.13992837	    -10.59763852	      1.09352605	      0.98042377	      0.28621786	    -19.36250711	      0.94785901	      7.25886738	    -22.60748700	     11.15210649	      3.16898046	     17.67580700	     27.86283209	     -1.52927773	     -4.58061455	    -11.16455262	      6.30718946	    -13.45675201	      4.43940938	      3.08343694	     -3.31956005	     10.35622920
